<?xml version="1.0" encoding="UTF-8"?>
<svg id="Layer_1" xmlns="http://www.w3.org/2000/svg" viewBox="0 0 226.6 226.6">
    <path d="M113.3,0C50.83,0,0,50.83,0,113.3s50.83,113.3,113.3,113.3,113.3-50.83,113.3-113.3S175.78,0,113.3,0Zm0,205.11c-50.62,0-91.81-41.19-91.81-91.81S62.68,21.49,113.3,21.49s91.81,41.19,91.81,91.81-41.19,91.81-91.81,91.81Z" />
    <path d="M173.38,67.73h-24.3l-33.36,39.28v-39.28H60.8v17.56h33.2v44.93c0,2.35-.23,4.43-.73,6.25-1.55,6.25-5.85,9.39-12.63,9.39s-12.43-3.5-17.56-10.38l-12.13,14.58c6.88,8.89,18.09,13.75,30.78,13.75,4.79,0,9.13-.53,12.96-1.62,11.27-3.17,18.15-11.11,20.3-23.87,.5-2.88,.73-5.98,.73-9.32v-4.99l34.45,38.19h25.49l-41.43-46.42,39.15-48.04Z" />
</svg>